<svg id="logo-5-notext" width="17" height="40" xmlns="http://www.w3.org/2000/svg" fill="none">
  <path fill="#FFF" class="ccustom" d="m13.63,9c0,-1.44278 -0.5731,-2.82647 -1.5933,-3.84666c-1.0202,-1.0202 -2.40392,-1.59334 -3.8467,-1.59334c-1.44278,0 -2.82646,0.57314 -3.84666,1.59334c-1.0202,1.02019 -1.59334,2.40388 -1.59334,3.84666l0,16.45l4.48,3.21l0,7.82l1.92,0l0,-7.82l4.48,-3.21l0,-16.45zm-1.92,9.2l-2.56,2.56l0,-2.4l2.56,-2.56l0,2.4zm-7,-2.4l2.56,2.56l0,2.4l-2.56,-2.56l0,-2.4zm7,-2.72l-3.52,3.52l-3.52,-3.6l0,-2.4l3.52,3.52l3.52,-3.52l0,2.48zm-3.52,-7.6c0.77415,0.00342 1.52583,0.26053 2.1399,0.73193c0.6141,0.4714 1.0567,1.1311 1.2601,1.87807l-3.4,3.39l-3.4,-3.39c0.19594,-0.7544 0.63537,-1.42305 1.25013,-1.90219c0.61476,-0.47915 1.37046,-0.74202 2.14987,-0.74782l0,0.04001zm-3.52,19l0,-3.6l2.56,2.56l0,2.86l-2.56,-1.82zm4.48,1.83l0,-2.87l2.56,-2.56l0,3.59l-2.56,1.84z"/>
</svg>