<svg id="Layer_1" data-name="Layer 1" xmlns="http://www.w3.org/2000/svg" viewBox="0 0 1027.23 212.6"><defs><style>.cls-1{fill:#69f0ae;}</style></defs><path class="cls-1" d="M267.33,99.74a17.06,17.06,0,0,1,6.21,1.27,30.63,30.63,0,0,1,6.21,3.33h-.12a13.3,13.3,0,0,1,4.6,5.64,19.55,19.55,0,0,1,1.61,8.16V133.9q0,9.32-6.21,13.91a26.36,26.36,0,0,1-6.15,3.4,17.3,17.3,0,0,1-6.15,1.2H242.26a17.21,17.21,0,0,1-6.15-1.2,26.62,26.62,0,0,1-6.16-3.4q-6.21-4.59-6.21-13.91v-7.59q0-5.4,6.79-5.41t6.9,5.41V133a9.07,9.07,0,0,0,1.72,5.4c1.15,1.61,3.15,2.42,6,2.42h19.32q4.26,0,6-2.42a9.08,9.08,0,0,0,1.73-5.4V119.06a9.16,9.16,0,0,0-1.73-5.34q-1.73-2.48-6-2.48H242.26q-6,0-12.31-4.37Q223.74,102,223.74,93V79.27a19.29,19.29,0,0,1,1.61-8.1,14.42,14.42,0,0,1,4.6-5.7h-.11a34.56,34.56,0,0,1,6.21-3.22A17,17,0,0,1,242.26,61h25.07a17,17,0,0,1,6.21,1.26,35.24,35.24,0,0,1,6.21,3.22h-.12a14.25,14.25,0,0,1,4.6,5.7,19.14,19.14,0,0,1,1.61,8.1v6.79q0,5.4-6.9,5.4t-6.78-5.4V80.31A8.9,8.9,0,0,0,270.43,75q-1.73-2.42-6-2.42H245.13c-2.83,0-4.83.81-6,2.42a8.89,8.89,0,0,0-1.72,5.29V92a8.83,8.83,0,0,0,1.72,5.35c1.15,1.57,3.15,2.35,6,2.35Z"/><path class="cls-1" d="M315.51,147.47q0,5.52-6.32,5.52t-6.33-5.52V65.82q0-5.52,6.33-5.52t6.32,5.52V83.07h24.27q5.87,0,12.19,4.37t6.21,13.8v46.23q0,5.52-6.33,5.52c-4.22,0-6.32-1.84-6.32-5.52v-45.2a10.28,10.28,0,0,0-1.84-5.75l.11.12c-1-1.84-3-2.76-6.09-2.76h-22.2Z"/><path class="cls-1" d="M390.72,152.3a23.21,23.21,0,0,1-6.78-1,26.2,26.2,0,0,1-6.21-2.82v.12q-5.64-3.57-5.64-13.11v-5.64a19,19,0,0,1,1.67-8.22,13.81,13.81,0,0,1,4.66-5.58h-.12a22.4,22.4,0,0,1,6.1-2.93,21.34,21.34,0,0,1,6.21-1H416V101.47a8.44,8.44,0,0,0-1.78-5.23q-1.78-2.35-6-2.36H394.75q-4.38,0-6,2.13a7.87,7.87,0,0,0-1.67,5v.92q0,6-6.44,6t-6.44-6v-1A17.13,17.13,0,0,1,375.83,93a15.83,15.83,0,0,1,4.54-5.41h-.11a34,34,0,0,1,6.26-3.22,17.5,17.5,0,0,1,6.27-1.26h17.48a17.15,17.15,0,0,1,6.15,1.26,30.84,30.84,0,0,1,6.16,3.22h-.12a14.33,14.33,0,0,1,4.6,5.7,19.29,19.29,0,0,1,1.61,8.1v46.12q0,5.52-6.32,5.52a21.63,21.63,0,0,1-2.36-.12,4.58,4.58,0,0,1-2-.63,3.76,3.76,0,0,1-1.38-1.49,5.63,5.63,0,0,1-.51-2.59L416,123H392.79a10.56,10.56,0,0,0-3.91.58,4.61,4.61,0,0,0-2.18,1.84c-.62,1.3-1.06,2.32-1.33,3a7.07,7.07,0,0,0-.4,2.47v4.48a5.71,5.71,0,0,0,1.78,4.55q1.78,1.55,6.16,1.55h12.88q4.24,0,4.25,5.4a6.82,6.82,0,0,1-1,3.86,3.61,3.61,0,0,1-3.22,1.55Z"/><path class="cls-1" d="M455.92,147.47c0,3.68-2.1,5.52-6.32,5.52q-6.56,0-6.56-5.52V99.86q0-9.44,5.64-13.11a23.26,23.26,0,0,1,13-3.68h13.11q4.26,0,4.26,5.4.22,5.41-4.26,5.41H462.59q-4.14,0-5.4,1.61a7.11,7.11,0,0,0-1.27,4.48Z"/><path class="cls-1" d="M501.46,133.9a8.54,8.54,0,0,0,1.79,5.17c1.18,1.61,3.2,2.42,6,2.42h14.38q4.26,0,6-2.13a7.44,7.44,0,0,0,1.78-4.89v-1.26c0-3.6,2.11-5.41,6.32-5.41s6.33,1.81,6.33,5.41v1.38a17.77,17.77,0,0,1-1.55,7.93,15.2,15.2,0,0,1-4.66,5.41q-6.1,4.37-12.19,4.37H506.41a19.41,19.41,0,0,1-11.85-4.37,15.05,15.05,0,0,1-4.25-5.81,20.48,20.48,0,0,1-1.5-8.11V101.24q0-9.31,5.75-13.8a27.58,27.58,0,0,1,5.93-3.28A16.1,16.1,0,0,1,506.41,83h19.32a19.66,19.66,0,0,1,6.09,1.1A26.8,26.8,0,0,1,538,87a13.78,13.78,0,0,1,4.43,5.4,18.64,18.64,0,0,1,1.67,8.17v15.52a7.68,7.68,0,0,1-1.55,4.72q-1.56,2.07-5.7,2.07H512c-2.76,0-4.21-1.8-4.37-5.41q0-5.4,4.37-5.4h19.55l-.11-10.7a8.52,8.52,0,0,0-1.78-5.23q-1.79-2.36-6-2.36H509.28c-2.83,0-4.85.79-6,2.36a8.47,8.47,0,0,0-1.79,5.23Z"/><path class="cls-1" d="M601.4,93.88H579.2q-4.71,0-6.21,2.76a9.94,9.94,0,0,0-1.61,5.63v33.12a5.64,5.64,0,0,0,1.84,4.55q1.85,1.55,6.1,1.55h11.84q4.14,0,4.14,5.4a7.13,7.13,0,0,1-1,3.86,3.48,3.48,0,0,1-3.17,1.55H577.25a23,23,0,0,1-12.88-3.68q-5.64-3.45-5.64-13.11V101.24a20.41,20.41,0,0,1,1.5-8.17,12.84,12.84,0,0,1,4.71-5.63q6.09-4.36,12.19-4.37H601.4V65.82c0-3.68,2.1-5.52,6.32-5.52s6.33,1.84,6.33,5.52v81.65q0,5.52-6.33,5.52a10.82,10.82,0,0,1-4.37-.86c-1.3-.58-2-1.86-2-3.86Z"/><path class="cls-1" d="M695.46,147.7q0,5.52-6.89,5.52t-6.79-5.52V72.6H661.66q-4.14,0-4.37-5.86c0-3.83,1.45-5.75,4.37-5.75h53.93q4.36,0,4.14,5.75,0,5.87-4.14,5.86H695.46Z"/><path class="cls-1" d="M741.35,147.47q0,5.52-6.33,5.52-6.56,0-6.55-5.52V99.86q0-9.44,5.63-13.11a23.27,23.27,0,0,1,13-3.68h13.11q4.24,0,4.25,5.4.24,5.41-4.25,5.41H748q-4.14,0-5.41,1.61a7.1,7.1,0,0,0-1.26,4.48Z"/><path class="cls-1" d="M791.6,152.3a23.25,23.25,0,0,1-6.78-1,26.2,26.2,0,0,1-6.21-2.82v.12Q773,145.05,773,135.51v-5.64a19,19,0,0,1,1.67-8.22,13.81,13.81,0,0,1,4.66-5.58h-.12a22.4,22.4,0,0,1,6.1-2.93,21.34,21.34,0,0,1,6.21-1H816.9V101.47a8.44,8.44,0,0,0-1.78-5.23q-1.79-2.35-6-2.36H795.63q-4.38,0-6,2.13a7.87,7.87,0,0,0-1.67,5v.92q0,6-6.44,6t-6.44-6v-1A17.13,17.13,0,0,1,776.71,93a15.94,15.94,0,0,1,4.54-5.41h-.11a33.77,33.77,0,0,1,6.27-3.22,17.41,17.41,0,0,1,6.26-1.26h17.48a17.24,17.24,0,0,1,6.16,1.26,31,31,0,0,1,6.15,3.22h-.12a14.25,14.25,0,0,1,4.6,5.7,19.14,19.14,0,0,1,1.61,8.1v46.12q0,5.52-6.32,5.52a21.63,21.63,0,0,1-2.36-.12,4.49,4.49,0,0,1-2-.63,3.63,3.63,0,0,1-1.38-1.49,5.49,5.49,0,0,1-.52-2.59L816.9,123H793.67a10.59,10.59,0,0,0-3.91.58,4.61,4.61,0,0,0-2.18,1.84c-.62,1.3-1.06,2.32-1.32,3a7.07,7.07,0,0,0-.41,2.47v4.48a5.71,5.71,0,0,0,1.79,4.55q1.77,1.55,6.15,1.55h12.88q4.25,0,4.25,5.4a6.82,6.82,0,0,1-1,3.86,3.61,3.61,0,0,1-3.22,1.55Z"/><path class="cls-1" d="M867.85,153a3.45,3.45,0,0,1-.58-.06,4,4,0,0,0-.69-.06H865a17.09,17.09,0,0,1-2-.11,6.32,6.32,0,0,1-3.34-1.09,5.42,5.42,0,0,1-1.95-2.36L838.41,90a5.34,5.34,0,0,1,.63-4.31,7.09,7.09,0,0,1,3.85-2.82,13.24,13.24,0,0,1,1.61-.35,11.12,11.12,0,0,1,1.38-.11q3.57,0,5,3.91l8.39,26.1,8.86,27.37,17.25-53.47c.84-2.68,2.37-4,4.6-4a12.15,12.15,0,0,1,3.22.58,6.6,6.6,0,0,1,4.14,2.7,5.19,5.19,0,0,1,.34,4.43l-19.2,59.34c-.69,2.15-2.5,3.29-5.41,3.45a2.68,2.68,0,0,0-.52.06,3.36,3.36,0,0,1-.51.05,12.74,12.74,0,0,1-1.61.12h-2.53Z"/><path class="cls-1" d="M920.52,133.9a8.53,8.53,0,0,0,1.78,5.17q1.79,2.42,6,2.42h14.38q4.26,0,6-2.13a7.39,7.39,0,0,0,1.78-4.89v-1.26c0-3.6,2.11-5.41,6.33-5.41s6.32,1.81,6.32,5.41v1.38a17.77,17.77,0,0,1-1.55,7.93,15.2,15.2,0,0,1-4.66,5.41q-6.09,4.37-12.19,4.37H925.46a19.38,19.38,0,0,1-11.84-4.37,15.17,15.17,0,0,1-4.26-5.81,20.48,20.48,0,0,1-1.49-8.11V101.24q0-9.31,5.75-13.8a27.52,27.52,0,0,1,5.92-3.28A16.1,16.1,0,0,1,925.46,83h19.32a19.77,19.77,0,0,1,6.1,1.1,26.93,26.93,0,0,1,6.2,2.93,13.69,13.69,0,0,1,4.43,5.4,18.64,18.64,0,0,1,1.67,8.17v15.52a7.68,7.68,0,0,1-1.55,4.72c-1,1.38-2.93,2.07-5.69,2.07H931.1c-2.77,0-4.22-1.8-4.37-5.41s1.45-5.4,4.37-5.4h19.55l-.12-10.7a8.46,8.46,0,0,0-1.78-5.23q-1.79-2.36-6-2.36H928.33q-4.25,0-6,2.36a8.46,8.46,0,0,0-1.78,5.23Z"/><path class="cls-1" d="M990.89,147.81q0,5.41-6.32,5.41c-4.3,0-6.44-1.8-6.44-5.41V65.36c0-3.6,2.14-5.41,6.44-5.41s6.32,1.81,6.32,5.41Z"/><path class="cls-1" d="M111.21,37.34a70.87,70.87,0,0,0-64.89,95.83c3.49-.65,9.47-1.75,19.52-4,0,0,67.08-13.75,38.38-25.09,0,0-50.39-17-37.2-23.81s56.55-7,65.48-5.1c0,0-62.64,3.89-37.82,8.93,0,0,58.37,9.46,72.68,22.53,0,0,17,11.78-3,43.28a83.46,83.46,0,0,1-28.91,25.4A70.86,70.86,0,0,0,111.21,37.34Z"/></svg>