<svg id="Layer_1" data-name="Layer 1" xmlns="http://www.w3.org/2000/svg" viewBox="0 0 394.43 212.6"><defs><style>.cls-1{fill:#69f0ae;}</style></defs><path class="cls-1" d="M107.59,37.34A70.87,70.87,0,0,0,42.7,133.17c3.49-.65,9.47-1.75,19.51-4,0,0,67.09-13.75,38.39-25.09,0,0-50.39-17-37.21-23.81s56.56-7,65.48-5.1c0,0-62.63,3.89-37.81,8.93,0,0,58.37,9.46,72.68,22.53,0,0,17,11.78-3,43.28a83.46,83.46,0,0,1-28.91,25.4A70.86,70.86,0,0,0,107.59,37.34Z"/><path class="cls-1" d="M263.71,98.94a17,17,0,0,1,6.21,1.26,31.18,31.18,0,0,1,6.21,3.34H276a13.41,13.41,0,0,1,4.6,5.63,19.72,19.72,0,0,1,1.61,8.17v15.75q0,9.32-6.21,13.92a26,26,0,0,1-6.15,3.39,17.1,17.1,0,0,1-6.15,1.21H238.64a17.11,17.11,0,0,1-6.16-1.21,26,26,0,0,1-6.15-3.39q-6.21-4.6-6.21-13.92V125.5q0-5.4,6.79-5.4t6.9,5.4v6.67a9.08,9.08,0,0,0,1.72,5.41q1.72,2.41,6,2.41h19.32q4.26,0,6-2.41a9.08,9.08,0,0,0,1.73-5.41V118.26a9.17,9.17,0,0,0-1.73-5.35q-1.72-2.47-6-2.47H238.64q-6,0-12.31-4.37-6.21-4.83-6.21-13.92V78.47a19.31,19.31,0,0,1,1.61-8.11,14.3,14.3,0,0,1,4.6-5.69h-.11a33.93,33.93,0,0,1,6.21-3.22,17,17,0,0,1,6.21-1.27h25.07a17.06,17.06,0,0,1,6.21,1.27,34.58,34.58,0,0,1,6.21,3.22H276a14.3,14.3,0,0,1,4.6,5.69,19.31,19.31,0,0,1,1.61,8.11v6.78q0,5.41-6.9,5.41t-6.78-5.41V79.5a8.93,8.93,0,0,0-1.73-5.29q-1.72-2.42-6-2.41H241.51q-4.26,0-6,2.41a8.92,8.92,0,0,0-1.72,5.29V91.23a8.81,8.81,0,0,0,1.72,5.35q1.72,2.36,6,2.36Z"/><path class="cls-1" d="M331,146.89q0,5.52-6.9,5.52t-6.78-5.52V71.8H297.17q-4.14,0-4.37-5.87,0-5.75,4.37-5.75h53.94q4.36,0,4.14,5.75,0,5.86-4.14,5.87H331Z"/></svg>